PathFileType	4	(X/Y/Z)	2014001\dynamic\2014001_C1_03.trc
DataRate	CameraRate	NumFrames	NumMarkers	Units	OrigDataRate	OrigDataStartFrame	OrigNumFrames
100.000000	100.000000	4	52	mm	100.000000	428	490
Frame#	Time	L_IAS			L_IPS			R_IPS			R_IAS			L_FTC			L_FLE			L_FME			L_FAX			L_TTC			L_FAL			L_TAM			L_FCC			L_FM1			L_FM2			L_FM5			R_FTC			R_FLE			R_FME			R_FAX			R_TTC			R_FAL			R_TAM			R_FCC			R_FM1			R_FM2			R_FM5			CV7			TV10			SXS			SJN			L_SIA			L_SRS			L_SAA			L_SAE			L_HLE			L_HME			L_UOA			L_RSP			L_UHE			L_HM2			L_HM5			R_SIA			R_SRS			R_SAA			R_SAE			R_HLE			R_HME			R_UOA			R_RSP			R_UHE			R_HM2			R_HM5			
		X1	Y1	Z1	X2	Y2	Z2	X3	Y3	Z3	X4	Y4	Z4	X5	Y5	Z5	X6	Y6	Z6	X7	Y7	Z7	X8	Y8	Z8	X9	Y9	Z9	X10	Y10	Z10	X11	Y11	Z11	X12	Y12	Z12	X13	Y13	Z13	X14	Y14	Z14	X15	Y15	Z15	X16	Y16	Z16	X17	Y17	Z17	X18	Y18	Z18	X19	Y19	Z19	X20	Y20	Z20	X21	Y21	Z21	X22	Y22	Z22	X23	Y23	Z23	X24	Y24	Z24	X25	Y25	Z25	X26	Y26	Z26	X27	Y27	Z27	X28	Y28	Z28	X29	Y29	Z29	X30	Y30	Z30	X31	Y31	Z31	X32	Y32	Z32	X33	Y33	Z33	X34	Y34	Z34	X35	Y35	Z35	X36	Y36	Z36	X37	Y37	Z37	X38	Y38	Z38	X39	Y39	Z39	X40	Y40	Z40	X41	Y41	Z41	X42	Y42	Z42	X43	Y43	Z43	X44	Y44	Z44	X45	Y45	Z45	X46	Y46	Z46	X47	Y47	Z47	X48	Y48	Z48	X49	Y49	Z49	X50	Y50	Z50	X51	Y51	Z51	X52	Y52	Z52	

429	4.28	428.8718872070315	874.1516113281255	1276.70166015625	359.7203369140626	917.404174804688	1097.49462890625	269.9785156250001	918.4562377929692	1090.710327148438	186.9453887939454	894.4650878906255	1266.5595703125	476.9130554199221	784.4054565429692	1200.461303710938	412.6982116699221	433.559509277344	1193.47265625	296.5719604492189	436.3729248046877	1204.56494140625	412.6650390625002	371.5633544921876	1170.97216796875	357.0567932128907	355.2860107421876	1225.951782226563	342.9595947265626	60.62735366821292	1116.518432617188	253.1434936523439	74.59088134765628	1135.651733398438	295.702362060547	21.55604362487794	1071.727783203125	279.2781677246095	23.97289276123048	1250.695678710938	337.1830139160157	40.2265090942383	1258.045288085938	379.7408142089845	31.39956855773927	1202.364135742188	126.4738540649415	800.2269897460942	1177.455322265625	122.0864944458008	459.0147399902346	1264.004638671875	240.0334777832032	433.6915283203127	1294.918823242188	116.8906250000001	409.5334472656252	1230.204345703125	154.8120574951172	374.3487854003907	1293.45849609375	158.2203063964844	140.3733520507813	1065.735473632813	233.1394500732423	131.6367340087891	1117.708251953125	220.3604278564454	114.2253494262696	1018.704162597657	192.9991760253907	42.88548660278322	1187.964965820313	134.0922851562501	56.75159072875979	1180.708984375	108.8078842163087	62.37110519409183	1120.692260742188	302.2820739746095	1386.147705078125	1120.961669921875	320.870574951172	1150.994140625	1054.181518554688	318.7503051757814	1156.76806640625	1290.275390625	308.5739135742189	1316.905639648438	1245.27734375	413.1828308105471	1195.93212890625	1055.483154296875	398.583435058594	1327.899780273438	1076.490112304688	504.914001464844	1327.682739257813	1158.229248046875	487.1723327636721	1337.34912109375	1197.947998046875	570.9878540039065	1052.813354492188	1169.188842773438	497.1793212890627	1019.943237304688	1140.7177734375	546.6151123046877	1018.929809570313	1135.288208007813	531.2586059570315	827.0905761718755	1270.86181640625	599.670104980469	822.2820434570317	1225.342895507813	537.3453369140627	746.2078247070315	1301.533447265625	603.1829833984377	743.8193969726565	1224.398559570313	203.6875000000001	1187.81640625	1049.717407226563	218.7041168212892	1312.575561523438	1077.16162109375	115.3705139160157	1300.371215820313	1154.63720703125	126.7091598510743	1305.647338867188	1203.110717773438	59.95432281494143	1004.023986816407	1155.672119140625	138.3594055175782	986.6813354492192	1136.336791992188	92.49527740478518	979.830444335938	1128.957763671875	73.99190521240237	803.5462036132817	1267.128662109375	19.20325088500977	797.4874877929692	1206.128784179688	51.5783500671387	714.2418212890627	1297.710815429688	18.90480422973634	718.0222167968752	1199.989501953125	
430	4.29	429.0926208496096	873.9396362304692	1278.5205078125	359.8661499023439	917.2141113281255	1099.391479492188	270.1373596191407	918.307495117188	1092.665161132813	187.2463531494141	894.5993041992192	1268.595947265625	476.9754333496096	784.161010742188	1202.238037109375	412.752136230469	433.3953552246096	1194.274169921875	296.5959472656251	436.1350097656252	1205.469970703125	412.6938476562502	371.4661865234376	1171.55029296875	357.1602172851564	355.0582580566407	1226.58837890625	342.8760375976564	60.55371093750003	1116.555786132813	253.1054687500001	74.63471221923831	1135.782348632813	295.6462402343751	21.60977172851563	1071.632446289063	279.3143310546876	24.02513504028322	1250.77392578125	337.2514648437501	40.18803787231447	1258.03515625	379.8091735839845	31.3336582183838	1202.319458007813	126.5093612670899	800.281616210938	1179.819946289063	122.4244384765626	459.4668273925784	1269.283569335938	240.4647827148439	434.5532836914065	1299.998413085938	117.042594909668	409.1541137695315	1236.44140625	155.2438964843751	375.3473205566407	1300.127197265625	156.8984680175782	136.2067413330079	1078.17578125	232.1878967285157	128.4515380859376	1130.040649414063	218.8787841796876	108.3226470947266	1031.519409179688	191.9380035400391	41.9711380004883	1202.838745117188	133.1728973388672	56.08815765380862	1195.416748046875	107.6286621093751	60.0196342468262	1135.429931640625	302.4342651367189	1386.059204101563	1123.172241210938	321.1750488281251	1150.96826171875	1056.21533203125	318.8402709960939	1156.566772460938	1292.312377929688	308.6168212890626	1316.718872070313	1247.431396484375	413.509704589844	1195.951416015625	1057.646606445313	398.8267822265627	1327.917114257813	1078.711181640625	505.0466308593752	1327.728271484375	1160.579467773438	487.2844848632815	1337.343139648438	1200.299438476563	571.450134277344	1052.975341796875	1171.052978515625	497.7044372558596	1020.052307128907	1142.500854492188	547.1389160156252	1019.148071289063	1137.093017578125	532.0201416015627	826.9052734375005	1272.091430664063	600.4741821289065	822.3424682617192	1226.53759765625	538.2556762695315	745.9378662109377	1302.528076171875	604.1536254882815	743.8944091796877	1225.498168945313	204.1280975341798	1187.741455078125	1051.564453125	219.0017852783204	1312.4521484375	1079.191162109375	115.5625457763672	1300.148803710938	1156.412719726563	126.7508010864258	1305.3623046875	1204.871337890625	60.28664398193362	1003.986267089844	1156.083740234375	138.7892303466797	986.7509765625005	1137.00146484375	92.96294403076175	980.0249633789067	1129.376342773438	73.49412536621097	802.5458984375005	1265.787475585938	19.01269340515137	797.133911132813	1204.392944335938	50.79046630859378	712.9666748046877	1295.284790039063	18.63223457336426	717.7149658203127	1197.524169921875	
431	4.3	429.3028259277346	873.7228393554692	1280.354248046875	359.9942016601564	917.0136718750005	1101.308837890625	270.2763671875001	918.1525878906255	1094.64111328125	187.5359802246094	894.718627929688	1270.647827148438	477.0404968261721	783.9064331054692	1203.98291015625	412.7957763671877	433.2287902832034	1195.099853515625	296.6053771972657	435.8951721191409	1206.384399414063	412.7117004394534	371.3658752441407	1172.154663085938	357.2488403320314	354.8233642578126	1227.250732421875	342.7931518554689	60.47664260864261	1116.589965820313	253.0872497558595	74.69230651855472	1135.883911132813	295.5825500488282	21.66183853149415	1071.508178710938	279.3644409179689	24.10529518127443	1250.88720703125	337.3399658203126	40.15505981445314	1258.016235351563	379.8780822753907	31.247371673584	1202.267211914063	126.5332183837891	800.3344116210942	1182.232788085938	122.7809600830079	459.9078674316409	1274.51416015625	240.8938598632814	435.4142761230471	1305.052490234375	117.2536010742188	408.7798461914065	1242.58740234375	155.711166381836	376.363739013672	1306.768310546875	155.6393737792969	132.1566162109376	1090.761108398438	231.3120880126954	125.3871612548829	1142.49755859375	217.4422912597657	102.5988845825196	1044.539306640625	191.0085449218751	41.24996948242189	1217.771606445313	132.3984985351563	55.52247238159183	1210.162719726563	106.5494842529297	57.79950332641604	1150.265014648438	302.5752563476564	1385.96142578125	1125.396240234375	321.447723388672	1150.935913085938	1058.266967773438	318.9234313964845	1156.360717773438	1294.36669921875	308.6547851562501	1316.529296875	1249.603637695313	413.8117675781252	1195.960571289063	1059.819091796875	399.0500183105471	1327.9189453125	1080.9560546875	505.167907714844	1327.761962890625	1162.931884765625	487.3865661621096	1337.325927734375	1202.651245117188	571.9041137695315	1053.127685546875	1172.93505859375	498.2216491699221	1020.15185546875	1144.297119140625	547.6536865234377	1019.345886230469	1138.925903320313	532.7719726562502	826.7352905273442	1273.395629882813	601.270446777344	822.4070434570317	1227.8359375	539.1625976562502	745.6982421875002	1303.629638671875	605.1069946289065	743.9743652343752	1226.67919921875	204.5352630615236	1187.6748046875	1053.432861328125	219.2765502929689	1312.329711914063	1081.244506835938	115.7425918579102	1299.931030273438	1158.228271484375	126.7851104736329	1305.075927734375	1206.661376953125	60.62942504882815	1003.944641113282	1156.543090820313	139.2215881347657	986.827026367188	1137.695068359375	93.42765808105472	980.2095336914067	1129.851318359375	73.10304260253909	801.5980834960942	1264.555053710938	18.90843009948731	796.7973022460942	1202.79541015625	50.14547348022464	711.757751464844	1292.981323242188	18.47276878356934	717.4339599609377	1195.203979492188	
432	4.31	429.502868652344	873.5016479492192	1282.20458984375	360.1029663085939	916.8001098632817	1103.247192382813	270.3935852050782	917.9868164062505	1096.637329101563	187.8145904541016	894.822875976563	1272.719970703125	477.1075134277346	783.642456054688	1205.703857421875	412.8320922851565	433.0596618652346	1195.951416015625	296.6089172363282	435.6552734375002	1207.32421875	412.7208251953127	371.2619018554689	1172.793334960938	357.3275756835939	354.5798339843751	1227.941528320313	342.7124633789064	60.39629745483401	1116.619140625	253.0904846191407	74.75917816162112	1135.958618164063	295.5136718750001	21.71412658691407	1071.367553710938	279.4265747070314	24.21137809753419	1251.034057617188	337.4514770507814	40.12421798706056	1257.989624023438	379.9533996582032	31.13514709472658	1202.203857421875	126.5501022338868	800.3818359375005	1184.69140625	123.149528503418	460.3385925292971	1279.697509765625	241.3150634765626	436.2727355957034	1310.086669921875	117.5113677978516	408.4127502441409	1248.650634765625	156.2086334228516	377.3959045410157	1313.386474609375	154.4632568359376	128.2394256591797	1103.46484375	230.5157623291017	122.4619064331055	1155.055786132813	216.0711669921876	97.0785751342774	1057.740112304688	190.2059326171876	40.73616409301759	1232.7353515625	131.7645874023438	55.06871032714847	1224.917846679688	105.5733947753907	55.73276138305667	1165.1650390625	302.7070312500001	1385.851440429688	1127.633544921875	321.6904296875001	1150.895141601563	1060.336181640625	318.9993286132814	1156.146484375	1296.437744140625	308.6877441406251	1316.333618164063	1251.7939453125	414.090515136719	1195.95751953125	1062.002075195313	399.2550048828127	1327.902587890625	1083.22900390625	505.2790222167971	1327.781005859375	1165.289428710938	487.4789123535159	1337.294799804688	1205.00634765625	572.3460693359377	1053.265747070313	1174.8447265625	498.7292175292971	1020.243408203125	1146.10107421875	548.1575927734377	1019.520690917969	1140.78857421875	533.5081176757815	826.574829101563	1274.775390625	602.0547485351565	822.4708862304692	1229.239135742188	540.0582275390627	745.4812011718752	1304.832641601563	606.0390625000002	744.0538330078127	1227.942260742188	204.9090728759767	1187.615966796875	1055.319213867188	219.5290069580079	1312.205932617188	1083.321533203125	115.9118270874024	1299.71533203125	1160.083374023438	126.8137664794922	1304.78662109375	1208.484008789063	60.98055648803714	1003.89453125	1157.056274414063	139.6545410156251	986.9028930664067	1138.424072265625	93.88759613037112	980.3790893554692	1130.388793945313	72.81410980224612	800.700317382813	1263.442993164063	18.88604164123536	796.4722290039067	1201.350708007813	49.64345169067386	710.6099853515627	1290.82470703125	18.4216480255127	717.1704711914065	1193.05078125	
